# xmcd
#
# Track frame offsets:
#	150
#	13750
#	28636
#	41599
#	53703
#	64785
#	74933
#	89400
#	101083
#	110405
#	123980
#	137496
#
# Disc length: 1970 seconds
#
# Revision: 1
# Processed by: cddbd v1.5.2PL0 Copyright (c) Steve Scherf et al.
# Submitted via: audiograbber 1.83.01
#
DISCID=aa07b00c
DTITLE=Various Artist - country love songs
DYEAR=2011
DGENRE=Country
TTITLE0=porter wagoner and penny dehaven - we don't want the world
TTITLE1=mike lundsford - honey hungry
TTITLE2=charlie craig - i wish i had you back again
TTITLE3=dobie gray - i can't stop now
TTITLE4=george jones - nothing can stop my loving you
TTITLE5=sandy posey - what a woman in love won't do
TTITLE6=mel street - i love you because
TTITLE7=joe barry - today i started loving you again
TTITLE8=patsy cline - love me, honey, do
TTITLE9=david houston - love is a miracle
TTITLE10=floyd cramer - always in my heart and on my mind
TTITLE11=red sovine - love is
EXTD=
EXTT0=
EXTT1=
EXTT2=
EXTT3=
EXTT4=
EXTT5=
EXTT6=
EXTT7=
EXTT8=
EXTT9=
EXTT10=
EXTT11=
PLAYORDER=
